<?xml version="1.0" standalone="no"?>
<!DOCTYPE svg PUBLIC "-//W3C//DTD SVG 20010904//EN"
 "http://www.w3.org/TR/2001/REC-SVG-20010904/DTD/svg10.dtd">
<svg version="1.0" xmlns="http://www.w3.org/2000/svg"
 width="500.000000pt" height="500.000000pt" viewBox="0 0 500.000000 500.000000"
 preserveAspectRatio="xMidYMid meet">
<metadata>
Created by potrace 1.11, written by Peter Selinger 2001-2013
</metadata>
<g transform="translate(0.000000,500.000000) scale(0.100000,-0.100000)"
fill="#000000" stroke="none">
<path d="M772 4980 c-373 -85 -671 -386 -753 -761 -19 -87 -19 -135 -17 -1747
l3 -1657 22 -78 c49 -171 138 -323 262 -448 127 -126 283 -216 454 -262 l82
-22 1675 0 1675 0 82 22 c171 46 327 136 454 262 126 127 216 283 262 454 l22
82 0 1675 0 1675 -22 82 c-46 171 -136 327 -262 454 -125 124 -277 213 -448
262 l-78 22 -1665 2 c-1599 1 -1668 1 -1748 -17z"/>
</g>
</svg>
